<svg width="70" height="70" viewBox="0 0 70 70" fill="none" xmlns="http://www.w3.org/2000/svg">
<g filter="url(#filter0_d_257_101)">
<circle cx="34.5" cy="32.5" r="18.5" fill="white"/>
<path d="M45.2208 20.9651C45.2307 20.9651 45.244 20.9651 45.2573 20.9651C45.6043 20.9651 45.9263 21.073 46.1902 21.259L46.1853 21.2556C46.3778 21.4233 46.5073 21.659 46.5388 21.9246V21.9296C46.572 22.1321 46.5903 22.3645 46.5903 22.6019C46.5903 22.7098 46.587 22.8161 46.5787 22.9223V22.9074C46.2052 26.84 44.585 36.3768 43.7616 40.7792C43.413 42.6434 42.7274 43.2676 42.0634 43.3274C40.6209 43.4618 39.5252 42.3745 38.1275 41.4582C35.9396 40.0222 34.7029 39.1292 32.5797 37.7297C30.1245 36.1145 31.7165 35.2231 33.1142 33.7722C33.4811 33.3904 39.8406 27.6052 39.9651 27.0807C39.9718 27.0491 39.9751 27.0143 39.9751 26.9778C39.9751 26.8483 39.927 26.7304 39.8489 26.6408C39.7626 26.5843 39.6547 26.5528 39.5418 26.5528C39.4671 26.5528 39.3958 26.5677 39.3294 26.5926L39.3327 26.591C39.1135 26.6408 35.6187 28.9504 28.8479 33.5199C28.1092 34.1026 27.1763 34.4711 26.1604 34.5143H26.1504C24.7112 34.34 23.4047 34.0196 22.1647 33.5631L22.2875 33.6029C20.7304 33.095 19.4937 32.8277 19.5999 31.9678C19.6564 31.5207 20.2728 31.0631 21.4492 30.595C28.6958 27.4376 33.5281 25.3564 35.9462 24.3516C38.6139 22.9356 41.7065 21.7703 44.9585 21.0149L45.2191 20.9635L45.2208 20.9651ZM34.9419 6C21.1604 6.0332 10 17.2135 10 31C10 44.8064 21.1919 56 35 56C48.8081 56 60 44.8081 60 31C60 17.2135 48.8396 6.0332 35.0614 6H35.0581C35.0194 6 34.9806 6 34.9419 6Z" fill="#DF2727"/>
</g>
<defs>
<filter id="filter0_d_257_101" x="0" y="0" width="70" height="70" filterUnits="userSpaceOnUse" color-interpolation-filters="sRGB">
<feFlood flood-opacity="0" result="BackgroundImageFix"/>
<feColorMatrix in="SourceAlpha" type="matrix" values="0 0 0 0 0 0 0 0 0 0 0 0 0 0 0 0 0 0 127 0" result="hardAlpha"/>
<feOffset dy="4"/>
<feGaussianBlur stdDeviation="5"/>
<feComposite in2="hardAlpha" operator="out"/>
<feColorMatrix type="matrix" values="0 0 0 0 0 0 0 0 0 0 0 0 0 0 0 0 0 0 0.25 0"/>
<feBlend mode="normal" in2="BackgroundImageFix" result="effect1_dropShadow_257_101"/>
<feBlend mode="normal" in="SourceGraphic" in2="effect1_dropShadow_257_101" result="shape"/>
</filter>
</defs>
</svg>
