<svg width="70" height="70" viewBox="0 0 70 70" fill="none" xmlns="http://www.w3.org/2000/svg">
<g filter="url(#filter0_d_257_98)">
<circle cx="33.5" cy="32.5" r="18.5" fill="white"/>
<path d="M35 6C21.1914 6 10 17.1914 10 31C10 44.8086 21.1914 56 35 56C48.8086 56 60 44.8086 60 31C60 17.1914 48.8086 6 35 6ZM44.9805 27.1133C44.9902 27.3281 44.9902 27.5527 44.9902 27.7774C44.9902 34.5644 39.8242 42.3965 30.3711 42.3965C27.4707 42.3965 24.7656 41.5469 22.5 40.0918C22.9004 40.1406 23.3106 40.1601 23.7305 40.1601C26.1328 40.1601 28.3496 39.3398 30.1074 37.9629C27.8613 37.9238 25.9571 36.4394 25.3125 34.3984C25.625 34.457 25.9472 34.4863 26.2793 34.4863C26.7481 34.4863 27.2071 34.4278 27.6367 34.3008C25.2832 33.832 23.5156 31.7519 23.5156 29.2617V29.2031C24.209 29.584 25 29.8184 25.8398 29.8477C24.4629 28.9297 23.5547 27.3476 23.5547 25.5703C23.5547 24.6328 23.8086 23.7441 24.2481 22.9824C26.7871 26.0976 30.5664 28.1387 34.834 28.3535C34.7461 27.9824 34.6973 27.5918 34.6973 27.1816C34.6973 24.3496 37.0019 22.0449 39.834 22.0449C41.3086 22.0449 42.6465 22.6699 43.584 23.666C44.7559 23.4316 45.8496 23.0118 46.8457 22.416C46.4648 23.6172 45.6446 24.6231 44.5899 25.2578C45.625 25.1309 46.6211 24.8574 47.5391 24.4473C46.8554 25.4824 45.9863 26.3809 44.9805 27.1133Z" fill="#DF2727"/>
</g>
<defs>
<filter id="filter0_d_257_98" x="0" y="0" width="70" height="70" filterUnits="userSpaceOnUse" color-interpolation-filters="sRGB">
<feFlood flood-opacity="0" result="BackgroundImageFix"/>
<feColorMatrix in="SourceAlpha" type="matrix" values="0 0 0 0 0 0 0 0 0 0 0 0 0 0 0 0 0 0 127 0" result="hardAlpha"/>
<feOffset dy="4"/>
<feGaussianBlur stdDeviation="5"/>
<feComposite in2="hardAlpha" operator="out"/>
<feColorMatrix type="matrix" values="0 0 0 0 0 0 0 0 0 0 0 0 0 0 0 0 0 0 0.25 0"/>
<feBlend mode="normal" in2="BackgroundImageFix" result="effect1_dropShadow_257_98"/>
<feBlend mode="normal" in="SourceGraphic" in2="effect1_dropShadow_257_98" result="shape"/>
</filter>
</defs>
</svg>
